<svg width="16" height="16" viewBox="0 0 16 16" fill="none" xmlns="http://www.w3.org/2000/svg">
<path d="M9.33134 2.6665C9.82137 2.6665 10.2719 2.93529 10.5047 3.3665L10.8287 3.9665C11.0614 4.39772 11.512 4.66651 12.002 4.6665H13.3333C14.0692 4.6665 14.6667 5.26395 14.6667 5.99984V11.9998C14.6667 12.7357 14.0692 13.3332 13.3333 13.3332H2.66668C1.93079 13.3332 1.33334 12.7357 1.33334 11.9998V5.99984C1.33334 5.26395 1.93079 4.6665 2.66668 4.6665H3.99801C4.48751 4.66653 4.93767 4.39833 5.17068 3.96784L5.49668 3.36517C5.72968 2.93468 6.17984 2.66648 6.66934 2.6665L9.33134 2.6665" stroke="currentColor" stroke-width="1.33333" stroke-linecap="round" stroke-linejoin="round"/>
<path d="M6 8.6665C6 9.77033 6.89617 10.6665 8 10.6665C9.10383 10.6665 10 9.77033 10 8.6665C10 7.56267 9.10383 6.6665 8 6.6665C6.89617 6.6665 6 7.56267 6 8.6665V8.6665" stroke="currentColor" stroke-width="1.33333" stroke-linecap="round" stroke-linejoin="round"/>
</svg>
