<svg width="16" height="16" viewBox="0 0 16 16" fill="none" xmlns="http://www.w3.org/2000/svg">
<path d="M6.84534 14C7.08352 14.4125 7.52367 14.6666 8 14.6666C8.47633 14.6666 8.91648 14.4125 9.15467 14" stroke="#182235" stroke-width="1.33333" stroke-linecap="round" stroke-linejoin="round"/>
<path d="M2.17468 10.2173C1.99674 10.4123 1.95065 10.6939 2.05715 10.9355C2.16365 11.1771 2.40267 11.3331 2.66668 11.3333H13.3333C13.5973 11.3333 13.8365 11.1777 13.9433 10.9363C14.0501 10.6948 14.0043 10.4132 13.8267 10.2179C12.94 9.30392 12 8.33259 12 5.33325C12 3.12559 10.2077 1.33325 8.00001 1.33325C5.79235 1.33325 4.00001 3.12559 4.00001 5.33325C4.00001 8.33259 3.05935 9.30392 2.17468 10.2173" stroke="#182235" stroke-width="1.33333" stroke-linecap="round" stroke-linejoin="round"/>
</svg>
